<svg width="192" height="57" viewBox="0 0 192 57" fill="none" xmlns="http://www.w3.org/2000/svg">
<path d="M24.9556 41.11C24.9556 41.93 24.9756 42.58 25.0156 43.06C25.0756 43.52 25.1856 43.88 25.3456 44.14C25.5256 44.38 25.7856 44.54 26.1256 44.62C26.4856 44.7 26.9656 44.76 27.5656 44.8V46H18.1156V44.8C18.6956 44.76 19.1556 44.7 19.4956 44.62C19.8556 44.54 20.1256 44.38 20.3056 44.14C20.5056 43.9 20.6356 43.56 20.6956 43.12C20.7556 42.68 20.7856 42.08 20.7856 41.32V37.57C20.7856 36.39 20.7656 35.44 20.7256 34.72C20.6856 33.98 20.6356 33.48 20.5756 33.22C20.5156 32.96 20.4356 32.75 20.3356 32.59C20.2356 32.41 20.0856 32.28 19.8856 32.2C19.6856 32.1 19.4356 32.04 19.1356 32.02C18.8356 31.98 18.4556 31.96 17.9956 31.96V30.94L23.7856 29.8L24.1756 32.44H24.2956C24.9556 31.6 25.7356 30.95 26.6356 30.49C27.5356 30.03 28.5256 29.8 29.6056 29.8C30.8856 29.8 31.9156 29.98 32.6956 30.34C33.4956 30.68 34.2056 31.26 34.8256 32.08C35.1656 32.54 35.4656 33.14 35.7256 33.88C35.9856 34.6 36.1156 35.6 36.1156 36.88V41.11C36.1156 41.93 36.1356 42.58 36.1756 43.06C36.2356 43.52 36.3456 43.88 36.5056 44.14C36.6856 44.38 36.9456 44.54 37.2856 44.62C37.6256 44.7 38.0856 44.76 38.6656 44.8V46H29.2756V44.8C29.8756 44.78 30.3456 44.73 30.6856 44.65C31.0456 44.55 31.3156 44.38 31.4956 44.14C31.6756 43.9 31.7956 43.56 31.8556 43.12C31.9156 42.66 31.9456 42.06 31.9456 41.32V37.24C31.9456 36.22 31.8856 35.36 31.7656 34.66C31.6456 33.96 31.4456 33.4 31.1656 32.98C30.9056 32.54 30.5556 32.23 30.1156 32.05C29.6756 31.85 29.1256 31.75 28.4656 31.75C27.8256 31.75 27.2756 31.93 26.8156 32.29C26.3556 32.65 25.9556 33.15 25.6156 33.79C25.4356 34.15 25.2756 34.62 25.1356 35.2C25.0156 35.76 24.9556 36.35 24.9556 36.97V41.11ZM52.9925 35.02C52.9925 34.22 52.9725 33.59 52.9325 33.13C52.8925 32.65 52.7825 32.29 52.6025 32.05C52.4225 31.79 52.1525 31.62 51.7925 31.54C51.4525 31.44 50.9825 31.36 50.3825 31.3V30.1H57.1625V39.19C57.1625 40.41 57.1725 41.37 57.1925 42.07C57.2325 42.75 57.2925 43.26 57.3725 43.6C57.4325 43.86 57.5025 44.07 57.5825 44.23C57.6625 44.37 57.7925 44.49 57.9725 44.59C58.1525 44.67 58.3925 44.73 58.6925 44.77C59.0125 44.79 59.4225 44.8 59.9225 44.8V45.97L53.9525 46.33L53.6225 43.66H53.5025C52.9825 44.5 52.2525 45.15 51.3125 45.61C50.3725 46.07 49.3225 46.3 48.1625 46.3C46.0225 46.3 44.3925 45.54 43.2725 44.02C42.4125 42.86 41.9825 41.21 41.9825 39.07V35.02C41.9825 34.2 41.9625 33.56 41.9225 33.1C41.8825 32.62 41.7725 32.26 41.5925 32.02C41.4325 31.78 41.1825 31.62 40.8425 31.54C40.5025 31.44 40.0325 31.36 39.4325 31.3V30.1H46.1525V38.59C46.1525 40.61 46.4025 42.08 46.9025 43C47.4025 43.9 48.2025 44.35 49.3025 44.35C50.4825 44.35 51.3925 43.81 52.0325 42.73C52.6725 41.69 52.9925 40.16 52.9925 38.14V35.02ZM68.022 41.11C68.022 41.93 68.042 42.58 68.082 43.06C68.142 43.52 68.252 43.88 68.412 44.14C68.592 44.38 68.852 44.54 69.192 44.62C69.552 44.7 70.032 44.76 70.632 44.8V46H61.182V44.8C61.762 44.76 62.222 44.7 62.562 44.62C62.922 44.54 63.192 44.38 63.372 44.14C63.572 43.9 63.702 43.56 63.762 43.12C63.822 42.68 63.852 42.08 63.852 41.32V37.57C63.852 36.39 63.832 35.44 63.792 34.72C63.752 33.98 63.702 33.48 63.642 33.22C63.582 32.96 63.502 32.75 63.402 32.59C63.302 32.41 63.152 32.28 62.952 32.2C62.752 32.1 62.502 32.04 62.202 32.02C61.902 31.98 61.522 31.96 61.062 31.96V30.94L66.852 29.8L67.242 32.44H67.362C68.022 31.6 68.802 30.95 69.702 30.49C70.602 30.03 71.592 29.8 72.672 29.8C73.952 29.8 74.982 29.98 75.762 30.34C76.562 30.68 77.272 31.26 77.892 32.08C78.232 32.54 78.532 33.14 78.792 33.88C79.052 34.6 79.182 35.6 79.182 36.88V41.11C79.182 41.93 79.202 42.58 79.242 43.06C79.302 43.52 79.412 43.88 79.572 44.14C79.752 44.38 80.012 44.54 80.352 44.62C80.692 44.7 81.152 44.76 81.732 44.8V46H72.342V44.8C72.942 44.78 73.412 44.73 73.752 44.65C74.112 44.55 74.382 44.38 74.562 44.14C74.742 43.9 74.862 43.56 74.922 43.12C74.982 42.66 75.012 42.06 75.012 41.32V37.24C75.012 36.22 74.952 35.36 74.832 34.66C74.712 33.96 74.512 33.4 74.232 32.98C73.972 32.54 73.622 32.23 73.182 32.05C72.742 31.85 72.192 31.75 71.532 31.75C70.892 31.75 70.342 31.93 69.882 32.29C69.422 32.65 69.022 33.15 68.682 33.79C68.502 34.15 68.342 34.62 68.202 35.2C68.082 35.76 68.022 36.35 68.022 36.97V41.11ZM82.8589 31.75V30.4C84.0589 30.06 85.0589 29.55 85.8589 28.87C86.6789 28.17 87.2889 27.37 87.6889 26.47H89.2189V30.1H92.6689V31.75H89.2189V40.96C89.2189 42.2 89.3489 43.08 89.6089 43.6C89.8889 44.12 90.3489 44.38 90.9889 44.38C91.7689 44.38 92.3589 44.02 92.7589 43.3L93.3889 44.17C92.8289 45.59 91.5089 46.3 89.4289 46.3C88.0489 46.3 86.9689 45.98 86.1889 45.34C85.4289 44.7 85.0489 43.8 85.0489 42.64V31.75H82.8589ZM101.274 41.08C101.274 41.88 101.304 42.52 101.364 43C101.424 43.48 101.544 43.85 101.724 44.11C101.904 44.37 102.164 44.55 102.504 44.65C102.844 44.73 103.304 44.78 103.884 44.8V46H94.434V44.8C94.994 44.78 95.444 44.72 95.784 44.62C96.144 44.5 96.414 44.32 96.594 44.08C96.794 43.82 96.924 43.47 96.984 43.03C97.064 42.57 97.104 41.99 97.104 41.29V37.6C97.104 36.44 97.084 35.49 97.044 34.75C97.004 33.99 96.954 33.47 96.894 33.19C96.794 32.69 96.564 32.36 96.204 32.2C95.864 32.04 95.234 31.96 94.314 31.96V30.94L101.274 29.8V41.08ZM96.864 23.44C96.864 22.78 97.084 22.23 97.524 21.79C97.984 21.33 98.534 21.1 99.174 21.1C99.834 21.1 100.384 21.33 100.824 21.79C101.284 22.23 101.514 22.78 101.514 23.44C101.514 24.08 101.284 24.63 100.824 25.09C100.384 25.53 99.834 25.75 99.174 25.75C98.534 25.75 97.984 25.53 97.524 25.09C97.084 24.63 96.864 24.08 96.864 23.44ZM118.354 35.02C118.354 34.22 118.334 33.59 118.294 33.13C118.254 32.65 118.144 32.29 117.964 32.05C117.784 31.79 117.514 31.62 117.154 31.54C116.814 31.44 116.344 31.36 115.744 31.3V30.1H122.524V39.19C122.524 40.41 122.534 41.37 122.554 42.07C122.594 42.75 122.654 43.26 122.734 43.6C122.794 43.86 122.864 44.07 122.944 44.23C123.024 44.37 123.154 44.49 123.334 44.59C123.514 44.67 123.754 44.73 124.054 44.77C124.374 44.79 124.784 44.8 125.284 44.8V45.97L119.314 46.33L118.984 43.66H118.864C118.344 44.5 117.614 45.15 116.674 45.61C115.734 46.07 114.684 46.3 113.524 46.3C111.384 46.3 109.754 45.54 108.634 44.02C107.774 42.86 107.344 41.21 107.344 39.07V35.02C107.344 34.2 107.324 33.56 107.284 33.1C107.244 32.62 107.134 32.26 106.954 32.02C106.794 31.78 106.544 31.62 106.204 31.54C105.864 31.44 105.394 31.36 104.794 31.3V30.1H111.514V38.59C111.514 40.61 111.764 42.08 112.264 43C112.764 43.9 113.564 44.35 114.664 44.35C115.844 44.35 116.754 43.81 117.394 42.73C118.034 41.69 118.354 40.16 118.354 38.14V35.02ZM133.413 41.05C133.413 41.89 133.433 42.55 133.473 43.03C133.513 43.51 133.623 43.88 133.803 44.14C133.983 44.38 134.243 44.54 134.583 44.62C134.923 44.7 135.393 44.76 135.993 44.8V46H126.513V44.8C127.113 44.76 127.593 44.7 127.953 44.62C128.313 44.54 128.583 44.38 128.763 44.14C128.943 43.9 129.063 43.56 129.123 43.12C129.183 42.66 129.213 42.05 129.213 41.29V37.57C129.213 36.43 129.193 35.48 129.153 34.72C129.133 33.96 129.083 33.44 129.003 33.16C128.943 32.9 128.863 32.7 128.763 32.56C128.683 32.4 128.543 32.28 128.343 32.2C128.163 32.1 127.923 32.04 127.623 32.02C127.323 31.98 126.933 31.96 126.453 31.96V30.94L132.243 29.8L132.603 32.41H132.783C133.623 31.47 134.463 30.8 135.303 30.4C136.163 30 137.153 29.8 138.273 29.8C139.593 29.8 140.683 30.03 141.543 30.49C142.403 30.95 143.053 31.61 143.493 32.47H143.613C144.333 31.63 145.193 30.98 146.193 30.52C147.193 30.04 148.263 29.8 149.403 29.8C150.603 29.8 151.643 29.95 152.523 30.25C153.423 30.55 154.123 30.98 154.623 31.54C155.023 32 155.313 32.6 155.493 33.34C155.693 34.08 155.793 35.11 155.793 36.43V41.05C155.793 41.87 155.813 42.52 155.853 43C155.913 43.48 156.033 43.85 156.213 44.11C156.393 44.37 156.653 44.54 156.993 44.62C157.333 44.7 157.803 44.76 158.403 44.8V46H148.923V44.8C149.523 44.78 149.993 44.73 150.333 44.65C150.693 44.55 150.963 44.38 151.143 44.14C151.343 43.88 151.463 43.53 151.503 43.09C151.563 42.65 151.593 42.05 151.593 41.29V37.36C151.593 36.32 151.533 35.44 151.413 34.72C151.293 34 151.103 33.42 150.843 32.98C150.583 32.54 150.233 32.23 149.793 32.05C149.373 31.85 148.853 31.75 148.233 31.75C147.533 31.75 146.953 31.92 146.493 32.26C146.053 32.6 145.683 33.04 145.383 33.58C144.863 34.52 144.603 35.69 144.603 37.09V41.05C144.603 41.87 144.623 42.52 144.663 43C144.703 43.48 144.813 43.85 144.993 44.11C145.173 44.37 145.433 44.54 145.773 44.62C146.133 44.7 146.623 44.76 147.243 44.8V46H137.733V44.8C138.333 44.76 138.803 44.7 139.143 44.62C139.503 44.54 139.773 44.38 139.953 44.14C140.153 43.9 140.273 43.56 140.313 43.12C140.373 42.66 140.403 42.05 140.403 41.29V37.36C140.403 36.32 140.343 35.44 140.223 34.72C140.103 34 139.903 33.42 139.623 32.98C139.363 32.54 139.013 32.23 138.573 32.05C138.133 31.85 137.583 31.75 136.923 31.75C136.263 31.75 135.713 31.91 135.273 32.23C134.853 32.55 134.503 32.98 134.223 33.52C133.963 34 133.763 34.55 133.623 35.17C133.483 35.79 133.413 36.43 133.413 37.09V41.05ZM160.487 44.08C160.487 43.44 160.697 42.9 161.117 42.46C161.557 42 162.097 41.77 162.737 41.77C163.397 41.77 163.947 42 164.387 42.46C164.827 42.9 165.047 43.44 165.047 44.08C165.047 44.7 164.827 45.23 164.387 45.67C163.947 46.09 163.397 46.3 162.737 46.3C162.097 46.3 161.557 46.09 161.117 45.67C160.697 45.23 160.487 44.7 160.487 44.08Z" fill="#1C1C1C"/>
<rect width="62.5127" height="57" fill="#1C1C1C"/>
<path d="M24.9556 41.11C24.9556 41.93 24.9756 42.58 25.0156 43.06C25.0756 43.52 25.1856 43.88 25.3456 44.14C25.5256 44.38 25.7856 44.54 26.1256 44.62C26.4856 44.7 26.9656 44.76 27.5656 44.8V46H18.1156V44.8C18.6956 44.76 19.1556 44.7 19.4956 44.62C19.8556 44.54 20.1256 44.38 20.3056 44.14C20.5056 43.9 20.6356 43.56 20.6956 43.12C20.7556 42.68 20.7856 42.08 20.7856 41.32V37.57C20.7856 36.39 20.7656 35.44 20.7256 34.72C20.6856 33.98 20.6356 33.48 20.5756 33.22C20.5156 32.96 20.4356 32.75 20.3356 32.59C20.2356 32.41 20.0856 32.28 19.8856 32.2C19.6856 32.1 19.4356 32.04 19.1356 32.02C18.8356 31.98 18.4556 31.96 17.9956 31.96V30.94L23.7856 29.8L24.1756 32.44H24.2956C24.9556 31.6 25.7356 30.95 26.6356 30.49C27.5356 30.03 28.5256 29.8 29.6056 29.8C30.8856 29.8 31.9156 29.98 32.6956 30.34C33.4956 30.68 34.2056 31.26 34.8256 32.08C35.1656 32.54 35.4656 33.14 35.7256 33.88C35.9856 34.6 36.1156 35.6 36.1156 36.88V41.11C36.1156 41.93 36.1356 42.58 36.1756 43.06C36.2356 43.52 36.3456 43.88 36.5056 44.14C36.6856 44.38 36.9456 44.54 37.2856 44.62C37.6256 44.7 38.0856 44.76 38.6656 44.8V46H29.2756V44.8C29.8756 44.78 30.3456 44.73 30.6856 44.65C31.0456 44.55 31.3156 44.38 31.4956 44.14C31.6756 43.9 31.7956 43.56 31.8556 43.12C31.9156 42.66 31.9456 42.06 31.9456 41.32V37.24C31.9456 36.22 31.8856 35.36 31.7656 34.66C31.6456 33.96 31.4456 33.4 31.1656 32.98C30.9056 32.54 30.5556 32.23 30.1156 32.05C29.6756 31.85 29.1256 31.75 28.4656 31.75C27.8256 31.75 27.2756 31.93 26.8156 32.29C26.3556 32.65 25.9556 33.15 25.6156 33.79C25.4356 34.15 25.2756 34.62 25.1356 35.2C25.0156 35.76 24.9556 36.35 24.9556 36.97V41.11ZM52.9925 35.02C52.9925 34.22 52.9725 33.59 52.9325 33.13C52.8925 32.65 52.7825 32.29 52.6025 32.05C52.4225 31.79 52.1525 31.62 51.7925 31.54C51.4525 31.44 50.9825 31.36 50.3825 31.3V30.1H57.1625V39.19C57.1625 40.41 57.1725 41.37 57.1925 42.07C57.2325 42.75 57.2925 43.26 57.3725 43.6C57.4325 43.86 57.5025 44.07 57.5825 44.23C57.6625 44.37 57.7925 44.49 57.9725 44.59C58.1525 44.67 58.3925 44.73 58.6925 44.77C59.0125 44.79 59.4225 44.8 59.9225 44.8V45.97L53.9525 46.33L53.6225 43.66H53.5025C52.9825 44.5 52.2525 45.15 51.3125 45.61C50.3725 46.07 49.3225 46.3 48.1625 46.3C46.0225 46.3 44.3925 45.54 43.2725 44.02C42.4125 42.86 41.9825 41.21 41.9825 39.07V35.02C41.9825 34.2 41.9625 33.56 41.9225 33.1C41.8825 32.62 41.7725 32.26 41.5925 32.02C41.4325 31.78 41.1825 31.62 40.8425 31.54C40.5025 31.44 40.0325 31.36 39.4325 31.3V30.1H46.1525V38.59C46.1525 40.61 46.4025 42.08 46.9025 43C47.4025 43.9 48.2025 44.35 49.3025 44.35C50.4825 44.35 51.3925 43.81 52.0325 42.73C52.6725 41.69 52.9925 40.16 52.9925 38.14V35.02Z" fill="white"/>
</svg>
